<svg width="229" height="317" viewBox="0 0 229 317" fill="none" xmlns="http://www.w3.org/2000/svg">
<path fill-rule="evenodd" clip-rule="evenodd" d="M113.556 212.411C115.178 213.478 125.216 212.854 139.719 210.675C154.102 208.179 171.884 213.06 181.549 205.833C188.085 200.941 188.906 179.035 187.846 176.228L187.737 175.94C186.997 173.98 184.932 172.962 181.943 172.596C169.737 171.233 167.074 170.04 163.675 172.516C146.04 185.388 110.23 195.74 113.556 212.411Z" fill="#912B22"/>
<path fill-rule="evenodd" clip-rule="evenodd" d="M128.052 250.785C129.682 251.875 139.712 251.228 154.217 249.055C170.234 246.127 186.63 250.109 196.298 242.874C202.834 237.981 203.404 217.415 202.341 214.603L202.237 214.326C201.499 212.372 199.432 211.348 196.445 210.988C187.073 209.786 175.035 209.111 171.643 211.584C153.968 224.458 128.056 235.609 128.052 250.785Z" fill="#912B22"/>
<path d="M154.385 148.991L148.011 127.619C139.201 107.719 139.949 106.88 131.514 85.6264L85.7711 105.873C95.6321 126.508 106.48 159.946 115.086 179.958C135.107 226.458 152.187 271.348 166.176 314.762L220.113 284.984C212.726 271.678 211.029 262.007 203.878 247.976C201.902 244.099 194.213 240.285 192.255 236.353C181.27 214.298 171.576 191.5 161.134 167.738C159.973 165.096 155.54 151.655 154.385 148.991Z" fill="#988B7E"/>
<path d="M126.506 81.9384L178.137 49.7521L159.564 9.77487L78.0081 17.3318L3.78644 75.6104L20.7665 112.808L81.3321 100.039L126.506 81.9384Z" fill="#EEE7E0"/>
<path d="M164.388 0.87707C163.094 0.11007 161.819 -0.138428 160.49 0.0712722L73.6361 12.515C72.5281 12.652 71.6091 13.1193 70.7451 13.7683L2.31782 68.6644C1.26752 69.4624 0.566025 70.5914 0.252025 72.0324C-0.173075 73.2694 -0.0404778 74.6324 0.500022 75.9314L19.7343 120.3C20.2858 121.572 21.2998 122.643 22.7372 123.371C24.0692 123.961 25.4159 124.11 26.9482 123.789L82.6211 109.98C92.4511 130.859 101.805 151.486 110.639 171.812C131.446 220.283 149.096 266.964 163.461 311.932C163.726 313.123 164.27 314.009 165.238 314.711C166.174 315.496 167.136 315.972 168.333 316.094C169.498 316.299 170.519 316.223 171.598 315.755L225.025 292.593C226.104 292.125 227.001 291.393 227.62 290.392C228.339 289.463 228.66 288.408 228.715 287.216C228.76 286.051 228.518 284.966 228.029 283.942C204.918 242.673 182.88 197.963 161.841 149.592C152.93 129.3 144.182 108.433 135.751 86.9254L183.904 55.7704C185.196 54.8434 186.036 53.7694 186.488 52.3833C186.939 50.8367 186.839 49.3917 186.271 48.0811L167.026 3.74027C166.486 2.44057 165.554 1.40177 164.388 0.87707ZM150.613 154.482L150.636 154.587C170.722 200.921 191.816 244.14 213.95 284L173.013 301.747C159.023 258.333 141.927 213.404 121.867 166.921C113.288 146.92 104.1 126.519 94.2391 105.883L124.741 92.6374C133.176 113.891 141.775 134.57 150.613 154.482ZM29.0337 110.59L13.7265 75.2804L77.0511 24.4059L157.537 12.9597L172.828 48.2309L125.247 79.0694L83.9731 96.9394L29.0337 110.59Z" fill="#CFC3B5"/>
<path d="M110.639 171.812C101.805 151.486 92.4511 130.859 82.6211 109.981L94.2391 105.883C104.1 126.519 113.288 146.92 121.867 166.921C141.927 213.404 159.023 258.333 173.013 301.747L213.95 284C191.816 244.14 170.722 200.921 150.636 154.587L150.613 154.482C141.775 134.57 133.176 113.891 124.741 92.6374L135.751 86.9254C144.182 108.433 152.93 129.3 161.841 149.592C182.88 197.963 204.918 242.673 228.029 283.942C228.518 284.966 228.76 286.051 228.715 287.216C228.66 288.408 228.339 289.463 227.62 290.392C227.001 291.394 226.104 292.125 225.025 292.593L171.598 315.755C170.519 316.223 169.498 316.299 168.333 316.094C167.136 315.972 166.174 315.496 165.238 314.711C164.27 314.009 163.726 313.123 163.461 311.932C149.096 266.964 131.446 220.283 110.639 171.812Z" fill="#CFC3B5"/>
<path fill-rule="evenodd" clip-rule="evenodd" d="M161.487 150.805C145.334 162.893 117.684 176.716 102.186 182.57L113.365 212.167C113.409 212.267 113.484 212.349 113.58 212.402C124.156 208.407 155.501 192.615 173.154 179.756C176.26 177.584 179.206 175.192 181.97 172.599C183.97 170.606 185.095 168.877 184.647 167.689L173.371 137.839C174.41 140.661 168.025 145.918 161.487 150.805Z" fill="#F43825"/>
<path fill-rule="evenodd" clip-rule="evenodd" d="M175.985 189.185C166.314 196.414 152.548 204.275 139.719 210.675C131.109 214.975 122.921 218.614 116.69 220.968L127.861 250.541C127.904 250.641 127.98 250.724 128.075 250.776C138.651 246.781 169.996 230.99 187.652 218.136C190.756 215.961 193.702 213.57 196.468 210.979C198.465 208.98 199.593 207.257 199.144 206.069L187.869 176.219C188.906 179.035 182.521 184.292 175.985 189.185Z" fill="#F43825"/>
<path fill-rule="evenodd" clip-rule="evenodd" d="M190.491 227.588C180.821 234.817 167.053 242.672 154.226 249.078C145.604 253.382 137.404 257.026 131.173 259.38L142.44 289.207C152.907 285.253 184.43 269.427 202.127 256.525C208.648 251.769 214.553 246.931 213.617 244.453L202.341 214.603C203.412 217.438 197.019 222.672 190.491 227.588Z" fill="#F43825"/>
</svg>
