<svg width="230" height="317" viewBox="0 0 230 317" fill="none" xmlns="http://www.w3.org/2000/svg">
<path fill-rule="evenodd" clip-rule="evenodd" d="M113.845 212.868C115.467 213.935 125.505 213.311 140.008 211.132C154.391 208.636 172.173 213.517 181.838 206.29C188.374 201.398 189.195 179.492 188.135 176.685L188.026 176.397C187.286 174.437 185.221 173.419 182.232 173.053C170.026 171.69 167.363 170.497 163.964 172.973C146.329 185.845 110.519 196.197 113.845 212.868Z" fill="#912B22"/>
<path fill-rule="evenodd" clip-rule="evenodd" d="M128.341 251.242C129.971 252.332 140.001 251.685 154.506 249.512C170.523 246.584 186.919 250.566 196.587 243.331C203.123 238.438 203.693 217.872 202.63 215.06L202.526 214.783C201.788 212.829 199.721 211.805 196.734 211.445C187.362 210.243 175.324 209.568 171.932 212.041C154.257 224.915 128.345 236.066 128.341 251.242Z" fill="#912B22"/>
<path d="M154.674 149.448L148.3 128.076C139.49 108.176 140.238 107.337 131.803 86.083L86.06 106.33C95.921 126.965 106.769 160.403 115.375 180.415C135.396 226.915 152.476 271.805 166.465 315.219L220.402 285.441C213.015 272.135 211.318 262.464 204.167 248.433C202.191 244.556 194.502 240.742 192.544 236.81C181.559 214.755 171.865 191.957 161.423 168.195C160.262 165.553 155.829 152.112 154.674 149.448Z" fill="#988B7E"/>
<path d="M126.795 82.395L178.426 50.2087L159.853 10.2315L78.297 17.7884L4.07532 76.067L21.0554 113.265L81.621 100.496L126.795 82.395Z" fill="#EEE7E0"/>
<path d="M164.677 1.3337C163.383 0.566704 162.108 0.318207 160.779 0.527907L73.925 12.9716C72.817 13.1086 71.898 13.5759 71.034 14.2249L2.6067 69.121C1.5564 69.919 0.854904 71.048 0.540904 72.489C0.115804 73.726 0.248402 75.089 0.788902 76.388L20.0232 120.757C20.5747 122.029 21.5887 123.1 23.0261 123.828C24.3581 124.418 25.7048 124.567 27.2371 124.246L82.91 110.437C92.74 131.316 102.094 151.943 110.928 172.269C131.735 220.74 149.385 267.421 163.75 312.389C164.015 313.58 164.559 314.466 165.527 315.168C166.463 315.953 167.425 316.429 168.622 316.551C169.787 316.756 170.808 316.68 171.887 316.212L225.314 293.05C226.393 292.582 227.29 291.85 227.909 290.849C228.628 289.92 228.949 288.865 229.004 287.673C229.049 286.508 228.807 285.423 228.318 284.399C205.207 243.13 183.169 198.42 162.13 150.049C153.219 129.757 144.471 108.89 136.04 87.382L184.193 56.227C185.485 55.3 186.325 54.226 186.777 52.8399C187.228 51.2933 187.128 49.8483 186.56 48.5377L167.315 4.19691C166.775 2.89721 165.843 1.8584 164.677 1.3337ZM150.902 154.939L150.925 155.044C171.011 201.378 192.105 244.597 214.239 284.457L173.302 302.204C159.312 258.79 142.216 213.861 122.156 167.378C113.577 147.377 104.389 126.976 94.528 106.34L125.03 93.094C133.465 114.348 142.064 135.027 150.902 154.939ZM29.3226 111.047L14.0154 75.737L77.34 24.8625L157.826 13.4163L173.117 48.6875L125.536 79.526L84.262 97.396L29.3226 111.047Z" fill="#5C564F"/>
<path d="M110.928 172.269C102.094 151.943 92.74 131.316 82.91 110.438L94.528 106.34C104.389 126.976 113.577 147.377 122.156 167.378C142.216 213.861 159.312 258.79 173.302 302.204L214.239 284.457C192.105 244.597 171.011 201.378 150.925 155.044L150.902 154.939C142.064 135.027 133.465 114.348 125.03 93.094L136.04 87.382C144.471 108.89 153.219 129.757 162.13 150.049C183.169 198.42 205.207 243.13 228.318 284.399C228.807 285.423 229.049 286.508 229.004 287.673C228.949 288.865 228.628 289.92 227.909 290.849C227.29 291.851 226.393 292.582 225.314 293.05L171.887 316.212C170.808 316.68 169.787 316.756 168.622 316.551C167.425 316.429 166.463 315.953 165.527 315.168C164.559 314.466 164.015 313.58 163.75 312.389C149.385 267.421 131.735 220.74 110.928 172.269Z" fill="#5C564F"/>
<path fill-rule="evenodd" clip-rule="evenodd" d="M161.776 151.262C145.623 163.35 117.973 177.173 102.475 183.027L113.654 212.624C113.698 212.724 113.773 212.806 113.869 212.859C124.445 208.864 155.79 193.072 173.443 180.213C176.549 178.041 179.495 175.649 182.259 173.056C184.259 171.063 185.384 169.334 184.936 168.146L173.66 138.296C174.699 141.118 168.314 146.375 161.776 151.262Z" fill="#F43825"/>
<path fill-rule="evenodd" clip-rule="evenodd" d="M176.274 189.642C166.603 196.871 152.837 204.732 140.008 211.132C131.398 215.432 123.21 219.071 116.979 221.425L128.15 250.998C128.193 251.098 128.269 251.181 128.364 251.233C138.94 247.238 170.285 231.447 187.941 218.593C191.045 216.418 193.991 214.027 196.757 211.436C198.754 209.437 199.882 207.714 199.433 206.526L188.158 176.676C189.195 179.492 182.81 184.749 176.274 189.642Z" fill="#F43825"/>
<path fill-rule="evenodd" clip-rule="evenodd" d="M190.78 228.045C181.11 235.274 167.342 243.129 154.515 249.535C145.893 253.839 137.693 257.483 131.462 259.837L142.729 289.664C153.196 285.71 184.719 269.884 202.416 256.982C208.937 252.226 214.842 247.388 213.906 244.91L202.63 215.06C203.701 217.895 197.308 223.129 190.78 228.045Z" fill="#F43825"/>
</svg>
